<svg xmlns="http://www.w3.org/2000/svg" viewBox="0 0 24 24" fill="none"><path d="M17.413 8.938 10.5 16.48 6.587 12.21l1.474-1.351 2.439 2.66 5.439-5.933 1.474 1.351Z" fill="#ffffff" class="fill-000000"></path><path fill-rule="evenodd" clip-rule="evenodd" d="M12 .586 14.414 3H22v9.8a9 9 0 0 1-5.345 8.225L12 23.095l-4.655-2.07A9 9 0 0 1 2 12.801V3h7.586L12 .586Zm0 2.828L10.414 5H4v7.8a7 7 0 0 0 4.157 6.398L12 20.906l3.843-1.708A7 7 0 0 0 20 12.8V5h-6.414L12 3.414Z" fill="#ffffff" class="fill-000000"></path></svg>